<svg id="Layer_1" enable-background="new 0 0 480 480" height="512" viewBox="0 0 480 480" width="512" xmlns="http://www.w3.org/2000/svg"><g><path d="m456 0h-432c-13.23 0-24 10.77-24 24v84c0 13.23 10.77 24 24 24h432c13.23 0 24-10.77 24-24v-84c0-13.23-10.77-24-24-24zm-360.222 67.989-7.184 7.002 1.695 9.887c1.683 9.806-8.632 17.266-17.411 12.65l-8.878-4.667-8.879 4.668c-8.803 4.626-19.092-2.854-17.411-12.65l1.695-9.887-7.184-7.002c-7.121-6.94-3.186-19.039 6.65-20.468l9.928-1.443 4.439-8.995c4.398-8.918 17.125-8.913 21.521 0l4.439 8.995 9.928 1.443c9.842 1.429 13.771 13.53 6.652 20.467zm88 0-7.184 7.002 1.695 9.887c1.683 9.806-8.632 17.266-17.411 12.65l-8.878-4.667-8.879 4.668c-8.802 4.625-19.093-2.853-17.411-12.65l1.695-9.887-7.184-7.002c-7.121-6.94-3.186-19.039 6.65-20.468l9.928-1.443 4.439-8.996c4.399-8.917 17.125-8.913 21.521.001l4.439 8.995 9.928 1.443c9.842 1.429 13.771 13.53 6.652 20.467zm88 0-7.184 7.002 1.695 9.887c1.683 9.806-8.632 17.266-17.411 12.65l-8.878-4.667-8.879 4.668c-8.803 4.626-19.092-2.854-17.411-12.65l1.695-9.887-7.184-7.002c-7.121-6.94-3.186-19.039 6.65-20.468l9.928-1.443 4.439-8.996c4.399-8.917 17.125-8.913 21.521.001l4.439 8.995 9.928 1.443c9.842 1.429 13.771 13.53 6.652 20.467zm88 0-7.184 7.002 1.695 9.887c1.683 9.806-8.632 17.266-17.411 12.65l-8.878-4.667-8.879 4.668c-8.803 4.626-19.092-2.854-17.411-12.65l1.695-9.887-7.184-7.002c-7.121-6.94-3.186-19.039 6.65-20.468l9.928-1.443 4.439-8.996c4.399-8.917 17.125-8.913 21.521.001l4.439 8.995 9.928 1.443c9.842 1.429 13.771 13.53 6.652 20.467zm88 0-7.184 7.002 1.695 9.887c1.683 9.806-8.632 17.266-17.411 12.65l-8.878-4.667-8.879 4.668c-8.803 4.626-19.092-2.854-17.411-12.65l1.695-9.887-7.184-7.002c-7.121-6.94-3.186-19.039 6.65-20.468l9.928-1.443 4.439-8.996c4.399-8.917 17.125-8.913 21.521.001l4.439 8.995 9.928 1.443c9.842 1.429 13.771 13.53 6.652 20.467z"/><path d="m232 378v66c0 2.209-1.791 4-4 4h-28c-2.209 0-4-1.791-4-4v-66c0-2.209 1.791-4 4-4h28c2.209 0 4 1.791 4 4z"/><path d="m284 378v66c0 2.209-1.791 4-4 4h-28c-2.209 0-4-1.791-4-4v-66c0-2.209 1.791-4 4-4h28c2.209 0 4 1.791 4 4z"/><path d="m316 271v26c0 2.209-1.791 4-4 4h-36c-2.209 0-4-1.791-4-4v-26c0-2.209 1.791-4 4-4h36c2.209 0 4 1.791 4 4z"/><path d="m394 480h-308c-4.418 0-8-3.582-8-8s3.582-8 8-8h308c4.418 0 8 3.582 8 8s-3.582 8-8 8z"/><path d="m94 243v197c0 4.418 3.582 8 8 8h74c2.209 0 4-1.791 4-4v-66c0-2.209-1.791-4-4-4h-1.728c-4.262 0-7.982-3.218-8.255-7.471-.299-4.66 3.388-8.529 7.983-8.529h131.728c4.262 0 7.982 3.218 8.255 7.471.299 4.66-3.388 8.529-7.983 8.529h-2c-2.209 0-4 1.791-4 4v66c0 2.209 1.791 4 4 4h74c4.418 0 8-3.582 8-8v-197c0-4.418-3.582-8-8-8h-276c-4.418 0-8 3.582-8 8zm130 66c0 4.42-3.58 8-8 8h-60c-4.42 0-8-3.58-8-8v-50c0-4.42 3.58-8 8-8h60c4.42 0 8 3.58 8 8zm108 0c0 4.42-3.58 8-8 8h-60c-4.42 0-8-3.58-8-8v-50c0-4.42 3.58-8 8-8h60c4.42 0 8 3.58 8 8z"/><path d="m208 271v26c0 2.209-1.791 4-4 4h-36c-2.209 0-4-1.791-4-4v-26c0-2.209 1.791-4 4-4h36c2.209 0 4 1.791 4 4z"/><path d="m412 177v18c0 13.23-10.77 24-24 24h-296c-13.23 0-24-10.77-24-24v-18c0-13.23 10.77-24 24-24h296c13.23 0 24 10.77 24 24z"/></g></svg>