<?xml version="1.0" encoding="UTF-8"?>
<svg width="294px" height="327px" viewBox="0 0 294 327" version="1.1" xmlns="http://www.w3.org/2000/svg" xmlns:xlink="http://www.w3.org/1999/xlink">
    <!-- Generator: sketchtool 57.1 (101010) - https://sketch.com -->
    <title>06B26507-AF18-47E4-87CF-29D0B1C50A56</title>
    <desc>Created with sketchtool.</desc>
    <g id="Inner-Page" stroke="none" stroke-width="1" fill="none" fill-rule="evenodd">
        <g id="Home-01" transform="translate(-1383.000000, -422.000000)">
            <g id="Image-and-Shape" transform="translate(1055.000000, 177.000000)">
                <g id="Humaaan-A-Human/Sitting" transform="translate(525.000000, 394.000000) scale(-1, 1) translate(-525.000000, -394.000000) translate(375.000000, 222.000000)">
                    <g id="Head/Front-Head/Front/Short-2" transform="translate(82.000000, 0.000000)">
                        <g id="Head" transform="translate(54.000000, 30.209632)" fill="#B28B67">
                            <path d="M38.1433414,8.90105624 C43.9381521,19.4267951 43.249578,46.1262045 35.7603014,48.0074476 C32.773664,48.7576658 26.4113241,46.9199975 19.935865,43.1165528 L24,71.1388103 L0,71.1388103 L8.26138948,33.6097627 C3.6539653,28.3390972 0.535668136,21.8799606 1.05677633,14.6423683 C2.55833022,-6.2124845 32.3485306,-1.62468259 38.1433414,8.90105624 Z"></path>
                        </g>
                        <path d="M60.4181384,68.5149789 C57.4059021,55.4555872 48.8245327,46.5534374 50.1351137,40.7164478 C51.0088343,36.8251214 53.3375617,34.4052422 57.1212959,33.45681 C59.0782074,25.742018 65.3896485,22.4606162 76.0556193,23.6126047 C92.0545754,25.3405876 101.819448,31.81538 97.6024819,46.0627488 C93.7260987,46.0627488 89.0464758,44.6965998 82.57553,47.0372531 C80.5223249,47.7799329 79.0538125,50.0830483 78.1699927,53.9465992 L75.2457978,53.9465992 C72.4077436,49.3616205 69.6094038,47.676766 66.8507787,48.8920356 C64.0921535,50.1073052 63.4650732,53.0591998 64.9695377,57.7477196 L63.529076,68.5149789 L60.4181384,68.5149789 Z" id="Hair" fill="#191847"></path>
                    </g>
                    <g id="Bottom/Skinny-Jeans-1-Bottom/Sitting/Baggy-Pants" transform="translate(0.000000, 182.232295)">
                        <g id="Seat-Objects/Seat/Cube-2" transform="translate(10.000000, 40.929177)" fill="#C5CFD6">
                            <path d="M174,0 C182.836556,-1.623249e-15 190,7.163444 190,16 L190,104.838524 C190,113.67508 182.836556,120.838524 174,120.838524 L59,120.838524 C50.163444,120.838524 43,113.67508 43,104.838524 L43,16 C43,7.163444 50.163444,1.623249e-15 59,0 L174,0 Z M158,27.2861183 L75,27.2861183 C72.790861,27.2861183 71,29.0769793 71,31.2861183 L71,31.2861183 L71,89.5524056 C71,91.7615446 72.790861,93.5524056 75,93.5524056 L75,93.5524056 L158,93.5524056 C160.209139,93.5524056 162,91.7615446 162,89.5524056 L162,89.5524056 L162,31.2861183 C162,29.0769793 160.209139,27.2861183 158,27.2861183 L158,27.2861183 Z" id="Seat"></path>
                        </g>
                        <path d="M299.158964,156.89518 C279.443095,133.433187 266.102867,116.039514 259.13828,104.714162 C247.213216,85.3224096 237.453121,68.0673315 234.373078,61.4759693 C227.028322,45.7580209 251.281896,38.3980178 256.77103,45.7293903 C265.079054,56.8257137 282.822044,91.7427193 310,150.480407 L299.158964,156.89518 Z" id="LegLower" fill="#B28B67"></path>
                        <path d="M258.757567,150.07365 L222.065197,60.0652994 C214.217429,43.6573771 252.115758,32.872051 257.883274,40.5079692 C270.977322,57.8438675 302.098846,126.231472 306,131.396415 L258.757567,150.07365 Z" id="LegLower" fill="#2F3676"></path>
                        <g id="Lower-Leg" transform="translate(220.172961, 95.987967) rotate(39.000000) translate(-220.172961, -95.987967) translate(192.672961, 25.823663)" fill="#B28B67">
                            <path d="M4.8104618,134.437764 C3.80382537,122.158411 1.93361965,79.6498495 3.80483649,59.9742111 C4.34254917,54.3202216 4.90906557,48.8537209 5.47997786,43.7256583 C7.17693121,28.4832417 36.1790278,28.9650642 33.8758977,43.4461238 C28.1401936,79.5096857 18.0447004,130.050679 17.3211185,134.417706 C16.3069876,140.53828 5.44310141,142.154954 4.8104618,134.437764 Z" id="LegLower"></path>
                        </g>
                        <g id="Right-Shoe-Accessories/Shoe/Flat-Sneaker-1" transform="translate(189.500000, 136.430591) rotate(30.000000) translate(-189.500000, -136.430591) translate(159.000000, 116.940507)" fill="#E4E4E4">
                            <path d="M2.67479151,24.7629731 C1.55826384,27.6689611 1,29.8436736 1,31.2871106 C1,33.0444205 1.3004142,35.6087728 1.90124261,38.9801674 C3.99318117,38.9801674 22.7937852,38.9801674 58.3030548,38.9801674 C59.768738,34.2582144 58.9226607,31.708984 55.7648228,31.332476 C52.606985,30.9559681 49.9837155,30.6160115 47.8950143,30.3126064 L21.6664496,18.9178996 C21.1599021,18.6978357 20.5708673,18.9300765 20.3508034,19.436624 C20.3495232,19.4395707 20.3482572,19.4425236 20.3470055,19.4454825 L18.6632131,23.4258089 L18.6632131,23.4258089 C15.7398812,24.7549908 13.3643706,25.4195818 11.5366811,25.4195818 C10.0468631,25.4195818 7.98755271,24.8313123 5.35874981,23.6547733 L5.35874922,23.6547746 C4.35054962,23.2035479 3.16745081,23.6550636 2.71622408,24.6632632 C2.70151839,24.6961209 2.6877025,24.7293697 2.67479151,24.7629731 Z" id="shoe"></path>
                        </g>
                        <g id="Right-Shoe-Accessories/Shoe/Flat-Sneaker-2" transform="translate(288.000000, 128.634557)" fill="#E4E4E4">
                            <path d="M2.67479151,24.7629731 C1.55826384,27.6689611 1,29.8436736 1,31.2871106 C1,33.0444205 1.3004142,35.6087728 1.90124261,38.9801674 C3.99318117,38.9801674 22.7937852,38.9801674 58.3030548,38.9801674 C59.768738,34.2582144 58.9226607,31.708984 55.7648228,31.332476 C52.606985,30.9559681 49.9837155,30.6160115 47.8950143,30.3126064 L21.6664496,18.9178996 C21.1599021,18.6978357 20.5708673,18.9300765 20.3508034,19.436624 C20.3495232,19.4395707 20.3482572,19.4425236 20.3470055,19.4454825 L18.6632131,23.4258089 L18.6632131,23.4258089 C15.7398812,24.7549908 13.3643706,25.4195818 11.5366811,25.4195818 C10.0468631,25.4195818 7.98755271,24.8313123 5.35874981,23.6547733 L5.35874922,23.6547746 C4.35054962,23.2035479 3.16745081,23.6550636 2.71622408,24.6632632 C2.70151839,24.6961209 2.6877025,24.7293697 2.67479151,24.7629731 Z" id="shoe"></path>
                        </g>
                        <path d="M208.862091,64.5609549 C178.365272,59.719309 157.938089,56.4086102 147.580542,54.6288586 C118.057451,49.5558649 109.448266,34.0738619 114.538476,0.294523105 L168.93427,0.294523105 C176.132679,2.32028831 206.210425,14.8489889 259.167508,37.8806249 C268.695532,42.4898778 266.921101,56.0802794 265.179547,60.5577155 C265.10852,60.7403225 249.046098,87.5621414 216.99228,141.023172 L172.494227,113.39866 L208.945659,67.8161258 C209.908306,65.9266594 209.88045,64.8416024 208.862091,64.5609549 Z" id="Leg-and-Butt" fill="#5C63AB"></path>
                    </g>
                    <g id="Body/Long-Sleeve-1-Body/Hoodie" transform="translate(22.000000, 79.909348)">
                        <path d="M89.4066314,90.5394784 C76.3017021,131.243968 69.228987,152.842134 68.1884862,155.333978 C65.8473592,160.940626 70.6932944,169.435792 72.7606386,174.003817 C65.9322851,177.016503 66.7167682,165.986489 58.1021914,169.936024 C50.2392053,173.540976 44.237938,180.030106 35.2043055,174.615597 C34.0936734,173.949915 32.8861275,171.428064 35.8466752,169.437105 C43.2224791,164.4769 53.8595457,155.807441 55.3056648,152.964489 C57.2777064,149.087617 61.6867172,128.288672 68.5326969,90.5676566 L68.5326969,90.5676566 Z M190.811895,89.8905724 L222.676726,112.6761 C231.324479,114.939694 238.548126,117.760699 244.347666,121.139114 C245.717047,122.354925 247.370713,124.818636 241.685237,124.40004 C235.999761,123.981445 229.999488,123.790411 229.212338,125.681703 C228.425187,127.572996 231.862991,129.828938 230.273555,132.38149 C229.213931,134.083191 224.224655,129.826428 215.305725,119.611201 L183.737729,106.887733 L190.811895,89.8905724 Z" id="Skin" fill="#B28B67"></path>
                        <path d="M122.731734,9.33605382 L131.216685,7.16176853 C165.5935,31.3428208 183.361709,81.9132612 224.996623,105.955274 L216.58973,118.149421 C147.889238,115.743469 125.383314,54.130692 122.731734,9.33605382 Z" id="Coat-Back" fill="#E87613" transform="translate(173.864178, 62.655595) rotate(5.000000) translate(-173.864178, -62.655595) "></path>
                        <path d="M90,111.093488 C124.671756,111.093488 150.175573,111.093488 166.511451,111.093488 C170.007634,111.093488 169.348845,106.173836 168.84345,103.691353 C163.010588,75.0404996 140.241304,44.1562656 140.241304,3.37249648 L118.1718,0 C99.917485,28.609893 93.6048263,63.8344641 90,111.093488 Z" id="Shirt" fill="#DDE3E9"></path>
                        <path d="M116.510031,7.76502378e-08 C117.254247,7.76502382e-08 117.936103,0.0452924572 118.555598,0.135877216 L125.471587,0.521106362 C145.095762,65.3340701 150.650112,108.791978 142.134636,130.894831 L141.872285,131.558077 L81.6517181,131.558295 C78.083754,139.66595 74.6695121,146.487407 71.4089926,152.022667 L71.4089926,152.022667 L55,152.022667 C53.4556687,103.362376 65.3275204,62.0619022 90.615555,28.121246 C87.410059,27.2247677 84.87144,25.1305384 83,21.8398011 C74.933557,7.65577964 77.8467271,-0.153574768 86.4671964,-2.72055366 C95.0876658,-5.28753256 102.775319,7.76502245e-08 116.510031,7.76502378e-08 Z" id="Coat-Front" fill="#FF9B21"></path>
                        <path d="M104,131.558077 L81.6517181,131.558295 C85.8136065,122.101039 90.1846539,110.893745 94.7648605,97.936414 C96.6589919,113.37717 99.7372979,124.585136 104,131.558077 Z" id="Shade" fill-opacity="0.1" fill="#000000"></path>
                    </g>
                </g>
            </g>
        </g>
    </g>
</svg>