<svg width="1536" height="597" viewBox="0 0 1536 597" fill="none" xmlns="http://www.w3.org/2000/svg">
<path d="M211.54 478.603V363.715C211.54 325.42 207.685 306.852 196.119 290.219C182.241 270.104 159.109 259.272 129.424 259.272C105.136 259.272 88.1726 266.622 69.2819 284.803V264.301H21.8624V478.603H73.1371V377.641C73.1371 349.016 75.0647 336.638 81.6186 326.193C89.7146 313.428 103.208 306.465 119.4 306.465C144.845 306.465 160.266 316.523 160.266 373.773V478.603H211.54ZM470.847 372.999C470.847 309.173 421.114 259.272 356.732 259.272C294.662 259.272 243.773 309.947 243.773 371.452C243.773 433.344 294.662 483.631 357.117 483.631C419.187 483.631 470.847 433.344 470.847 372.999ZM419.187 371.452C419.187 407.427 391.429 436.439 357.503 436.439C322.806 436.439 295.433 407.427 295.433 370.678C295.433 335.477 323.577 306.465 357.117 306.465C391.429 306.465 419.187 335.864 419.187 371.452ZM684.473 264.301H626.645L578.069 406.266L528.721 264.301H471.664L557.636 478.603H598.501L684.473 264.301ZM914.315 478.603V264.301H867.281V292.926C849.546 269.33 828.343 259.272 797.501 259.272C734.275 259.272 688.783 306.852 688.783 372.226C688.783 436.826 733.889 483.631 796.344 483.631C826.415 483.631 846.848 473.961 867.281 450.751V478.603H914.315ZM865.738 372.999C865.738 408.587 842.607 436.439 803.669 436.439C766.273 436.439 740.443 410.908 740.443 373.386C740.443 334.317 766.273 306.465 802.898 306.465C839.523 306.465 865.738 333.93 865.738 372.999ZM1003.82 478.603V192.738H952.542V478.603H1003.82ZM1261.43 478.603V264.301H1214.4V292.926C1196.67 269.33 1175.47 259.272 1144.62 259.272C1081.4 259.272 1035.9 306.852 1035.9 372.226C1035.9 436.826 1081.01 483.631 1143.46 483.631C1173.54 483.631 1193.97 473.961 1214.4 450.751V478.603H1261.43ZM1212.86 372.999C1212.86 408.587 1189.73 436.439 1150.79 436.439C1113.4 436.439 1087.56 410.908 1087.56 373.386C1087.56 334.317 1113.4 306.465 1150.02 306.465C1186.65 306.465 1212.86 333.93 1212.86 372.999ZM1524.81 369.905C1524.81 305.305 1478.55 256.565 1417.25 256.565C1389.49 256.565 1370.61 264.301 1350.93 284.029V192.738H1299.67V478.603H1346.7V451.138C1368.68 474.734 1389.1 483.631 1420.72 483.631C1480.86 483.631 1524.81 434.505 1524.81 369.905ZM1473.15 370.292C1473.15 409.361 1447.71 436.439 1411.09 436.439C1374.07 436.439 1347.86 408.974 1347.86 369.905C1347.86 331.222 1374.07 303.757 1409.92 303.757C1446.55 303.757 1473.15 331.996 1473.15 370.292Z" fill="#0070F3"/>
<path d="M1173.02 242.662H1116.05V335.393H1173.02V242.662Z" fill="white"/>
<mask id="mask0" mask-type="alpha" maskUnits="userSpaceOnUse" x="1098" y="320" width="101" height="101">
<path d="M1148.4 420.65C1176.01 420.65 1198.4 398.193 1198.4 370.49C1198.4 342.788 1176.01 320.331 1148.4 320.331C1120.8 320.331 1098.41 342.788 1098.41 370.49C1098.41 398.193 1120.8 420.65 1148.4 420.65Z" fill="#C4C4C4"/>
</mask>
<g mask="url(#mask0)">
<path d="M1069.71 411.87C1069.71 390.232 1089.79 374.233 1110.79 379.136L1118.72 380.987C1129.61 383.527 1141.05 381.378 1150.29 375.059L1151.32 374.357C1163.18 366.239 1178.3 364.632 1191.6 370.078L1201.93 374.311C1204.67 375.434 1207.71 375.567 1210.54 374.689C1218.76 372.135 1227.1 378.299 1227.1 386.931V413.256C1227.1 431.052 1212.72 445.478 1194.97 445.478H1103.2C1084.71 445.478 1069.71 430.431 1069.71 411.87Z" fill="#0070F3"/>
</g>
</svg>
