<svg xmlns="http://www.w3.org/2000/svg" width="151" height="106" viewBox="0 0 151 106" fill="none"><path d="M88.71 37.57L110.79 64.28L133.16 37.57V79.21C137.891 79.21 142.429 77.33 145.775 73.985C149.12 70.639 151 66.101 151 61.37V0.269997C144.49 0.269997 141.44 2.19 139 4.95L111.21 37.57L82.9 4.85C79.84 1.6 76.59 0.269997 70.68 0.269997V61.17C70.68 65.944 72.576 70.522 75.952 73.898C79.328 77.274 83.906 79.17 88.68 79.17V37.57" fill="#081416"></path><path opacity="0.38" d="M51.3 30C41.58 19.82 12.49 28.11 10.46 31.27C10.806 29.057 11.459 26.903 12.4 24.87C-17.94 51.21 17.32 92.37 41.73 94.97C10.42 75.73 9.29 40.62 51.3 30Z" fill="url(#paint0_linear)"></path><path d="M51.61 1.44C49.214 0.647004 46.704 0.251998 44.18 0.269998H10.46C17.8 22.27 48.16 11.54 48.14 24.27C51.69 26.2 52.79 28.12 51.3 30.03C47.46 25.62 11.3 25.79 10.46 49.47V52.74C11.07 72.01 19.06 77.83 25.76 79.01L26.21 79.08L27.01 79.18C27.55 79.18 28.09 79.26 28.64 79.26V46H46.83C46.83 46 68.26 46 68.26 24.41C68.26 9.37001 57.92 3.58 51.61 1.44Z" fill="#081416"></path><path d="M44.61 22.67C44.79 22.24 42.76 21.86 40.03 21.86C39.89 22.1 42.11 23.2 43.47 23.22C43.687 23.21 43.9 23.156 44.096 23.062C44.292 22.967 44.467 22.834 44.61 22.67Z" fill="#081416"></path><path d="M14.6 99.15C14.26 99.15 13.79 99.15 13.43 99.15V102.67C13.43 102.747 13.399 102.821 13.345 102.875C13.291 102.929 13.217 102.96 13.14 102.96H11.27C11.233 102.963 11.196 102.958 11.161 102.945C11.125 102.933 11.093 102.914 11.066 102.888C11.039 102.863 11.017 102.832 11.002 102.798C10.987 102.764 10.98 102.727 10.98 102.69V92.95C10.98 92.45 11.18 92.32 11.63 92.25C12.605 92.122 13.587 92.058 14.57 92.06C16.76 92.06 18.92 92.83 18.92 95.56V95.69C18.92 98.36 16.76 99.15 14.6 99.15ZM16.46 95.52C16.46 94.52 15.82 94.08 14.6 94.08H13.43V97.08C13.59 97.08 14.43 97.08 14.6 97.08C15.89 97.08 16.46 96.6 16.46 95.62V95.52Z" fill="#081416"></path><path d="M28.52 102.92H26.3C26.14 102.92 26.09 102.78 26.01 102.63L24.07 99H23.91H22.91V102.68C22.91 102.757 22.879 102.831 22.825 102.885C22.771 102.939 22.697 102.97 22.62 102.97H20.74C20.663 102.97 20.589 102.939 20.535 102.885C20.481 102.831 20.45 102.757 20.45 102.68V92.96C20.45 92.46 20.65 92.33 21.1 92.26C22.06 92.113 23.029 92.026 24 92C26.47 92 28.37 92.83 28.37 95.39V95.58C28.407 96.199 28.245 96.814 27.909 97.336C27.573 97.857 27.079 98.258 26.5 98.48L28.69 102.57C28.702 102.623 28.702 102.677 28.69 102.73C28.74 102.85 28.68 102.92 28.52 102.92ZM25.91 95.41C25.91 94.53 25.23 94.12 24.01 94.12C23.81 94.12 23.06 94.12 22.88 94.12V97C23.04 97 23.75 97 23.88 97C25.4 97 25.88 96.61 25.88 95.62L25.91 95.41Z" fill="#081416"></path><path d="M34.32 103.05C31.93 103.05 30.03 101.76 30.03 98.4V96.68C30.03 93.31 31.93 92.02 34.32 92.02C36.71 92.02 38.61 93.31 38.61 96.68V98.4C38.61 101.76 36.71 103.05 34.32 103.05ZM36.12 96.68C36.12 94.94 35.54 94.2 34.32 94.2C33.1 94.2 32.54 94.94 32.54 96.68V98.4C32.54 100.14 33.11 100.88 34.32 100.88C35.53 100.88 36.12 100.14 36.12 98.4V96.68Z" fill="#081416"></path><path d="M42.2 104.29L41.54 105.4C41.38 105.68 41.3 105.75 41.1 105.75H39.2C39.174 105.753 39.148 105.751 39.124 105.742C39.099 105.734 39.077 105.72 39.058 105.702C39.04 105.683 39.026 105.661 39.018 105.636C39.009 105.612 39.007 105.586 39.01 105.56C39.01 105.483 39.031 105.407 39.07 105.34L39.85 103.82C40.298 103.075 40.491 102.204 40.4 101.34V92.43C40.397 92.395 40.402 92.36 40.413 92.327C40.424 92.293 40.442 92.263 40.465 92.237C40.489 92.211 40.517 92.189 40.549 92.174C40.581 92.16 40.615 92.151 40.65 92.15H42.65C42.685 92.151 42.719 92.16 42.751 92.174C42.783 92.189 42.811 92.211 42.835 92.237C42.858 92.263 42.876 92.293 42.887 92.327C42.898 92.36 42.903 92.395 42.9 92.43V101.34C42.978 102.372 42.733 103.403 42.2 104.29Z" fill="#081416"></path><path d="M51.2 102.87C50.27 103.004 49.33 103.064 48.39 103.05C46.52 103.05 44.87 102.58 44.87 99.94V95.12C44.87 92.49 46.53 92.02 48.4 92.02C49.337 92.007 50.273 92.07 51.2 92.21C51.4 92.21 51.49 92.31 51.49 92.5V93.85C51.49 93.927 51.459 94.001 51.405 94.055C51.351 94.109 51.277 94.14 51.2 94.14H48.26C47.58 94.14 47.33 94.37 47.33 95.14V96.46H51.08C51.157 96.46 51.231 96.491 51.285 96.545C51.339 96.599 51.37 96.673 51.37 96.75V98.13C51.37 98.207 51.339 98.281 51.285 98.335C51.231 98.389 51.157 98.42 51.08 98.42H47.33V99.96C47.33 100.71 47.58 100.96 48.26 100.96H51.2C51.277 100.96 51.351 100.991 51.405 101.045C51.459 101.099 51.49 101.173 51.49 101.25V102.6C51.49 102.75 51.4 102.84 51.2 102.87Z" fill="#081416"></path><path d="M59.52 102.81C58.814 102.984 58.087 103.065 57.36 103.05C55.16 103.05 53.07 101.89 53.07 98.44V96.62C53.07 93.17 55.16 92.02 57.36 92.02C58.088 92.007 58.814 92.091 59.52 92.27C59.73 92.33 59.84 92.39 59.84 92.59V94C59.845 94.039 59.841 94.079 59.828 94.116C59.815 94.154 59.794 94.188 59.766 94.216C59.738 94.244 59.704 94.265 59.666 94.278C59.629 94.291 59.589 94.295 59.55 94.29C59 94.29 58.2 94.18 57.41 94.18C56.41 94.18 55.61 94.7 55.61 96.63V98.45C55.61 100.38 56.41 100.9 57.41 100.9C58.2 100.9 59 100.83 59.55 100.79C59.589 100.785 59.629 100.789 59.666 100.802C59.704 100.815 59.738 100.836 59.766 100.864C59.794 100.892 59.815 100.926 59.828 100.964C59.841 101.001 59.845 101.041 59.84 101.08V102.48C59.84 102.68 59.73 102.75 59.52 102.81Z" fill="#081416"></path><path d="M68.28 94.2H65.93V102.63C65.93 102.707 65.899 102.781 65.845 102.835C65.791 102.889 65.717 102.92 65.64 102.92H63.74C63.663 102.92 63.589 102.889 63.535 102.835C63.481 102.781 63.45 102.707 63.45 102.63V94.2H61.09C61.052 94.201 61.015 94.195 60.98 94.182C60.945 94.168 60.913 94.148 60.885 94.122C60.858 94.095 60.837 94.064 60.822 94.03C60.808 93.995 60.8 93.958 60.8 93.92V92.43C60.8 92.392 60.808 92.355 60.822 92.32C60.837 92.286 60.858 92.255 60.885 92.228C60.913 92.202 60.945 92.182 60.98 92.168C61.015 92.155 61.052 92.149 61.09 92.15H68.28C68.358 92.147 68.434 92.175 68.492 92.227C68.55 92.279 68.585 92.352 68.59 92.43V93.92C68.585 93.998 68.55 94.071 68.492 94.123C68.434 94.175 68.358 94.203 68.28 94.2Z" fill="#081416"></path><path d="M83.14 102.92H81.23C81.196 102.916 81.163 102.906 81.132 102.889C81.102 102.873 81.076 102.85 81.054 102.823C81.033 102.796 81.017 102.765 81.008 102.732C80.998 102.699 80.996 102.664 81 102.63V96.63C81 96.53 80.95 96.51 80.92 96.51C80.89 96.51 80.85 96.51 80.81 96.61L79.5 99C79.458 99.077 79.396 99.14 79.32 99.182C79.244 99.225 79.157 99.245 79.07 99.24H77.91C77.822 99.244 77.734 99.224 77.656 99.182C77.579 99.14 77.514 99.077 77.47 99L76.17 96.6C76.17 96.53 76.1 96.5 76.05 96.5C76 96.5 75.98 96.5 75.98 96.62V102.62C75.984 102.654 75.982 102.689 75.972 102.722C75.963 102.755 75.947 102.786 75.926 102.813C75.904 102.84 75.878 102.863 75.848 102.879C75.817 102.896 75.784 102.906 75.75 102.91H73.84C73.72 102.91 73.59 102.91 73.59 102.71V92.65C73.587 92.582 73.598 92.514 73.624 92.45C73.649 92.387 73.688 92.33 73.737 92.282C73.786 92.235 73.845 92.199 73.909 92.176C73.973 92.153 74.042 92.144 74.11 92.15H75.47C75.603 92.145 75.735 92.18 75.849 92.249C75.962 92.318 76.053 92.419 76.11 92.54L78.33 96.68C78.39 96.79 78.43 96.86 78.49 96.86C78.55 96.86 78.59 96.79 78.65 96.68L80.87 92.54C80.926 92.421 81.015 92.321 81.127 92.252C81.239 92.182 81.369 92.147 81.5 92.15H82.87C82.938 92.147 83.006 92.159 83.07 92.183C83.134 92.208 83.192 92.245 83.24 92.293C83.289 92.34 83.327 92.398 83.353 92.461C83.379 92.524 83.391 92.592 83.39 92.66V102.72C83.39 102.88 83.26 102.92 83.14 102.92Z" fill="#081416"></path><path d="M93.19 102.92H91.28C91.244 102.919 91.208 102.91 91.175 102.895C91.142 102.879 91.113 102.857 91.088 102.83C91.064 102.803 91.045 102.772 91.034 102.737C91.022 102.703 91.017 102.666 91.02 102.63V99.11H87.87V102.63C87.871 102.667 87.865 102.703 87.853 102.738C87.84 102.772 87.82 102.804 87.795 102.831C87.77 102.858 87.74 102.88 87.706 102.895C87.673 102.91 87.637 102.919 87.6 102.92H85.68C85.603 102.92 85.529 102.889 85.475 102.835C85.421 102.781 85.39 102.707 85.39 102.63V95.24C85.39 92.63 86.97 92.05 88.91 92.05H90C91.95 92.05 93.51 92.63 93.51 95.24V102.63C93.51 102.671 93.502 102.711 93.485 102.748C93.469 102.786 93.445 102.819 93.415 102.846C93.385 102.874 93.349 102.894 93.31 102.907C93.272 102.92 93.231 102.924 93.19 102.92ZM91 95.24C91 94.44 90.76 94.24 89.95 94.24H88.89C88.1 94.24 87.89 94.48 87.89 95.24V97.07H91V95.24Z" fill="#081416"></path><path d="M103.59 102.92H101.65C101.613 102.92 101.576 102.912 101.542 102.898C101.508 102.883 101.477 102.861 101.452 102.834C101.426 102.807 101.407 102.775 101.394 102.739C101.382 102.704 101.377 102.667 101.38 102.63V96.17C101.38 94.54 100.85 94.17 99.66 94.17C99.092 94.166 98.524 94.196 97.96 94.26V102.65C97.963 102.687 97.958 102.724 97.945 102.759C97.933 102.795 97.914 102.827 97.888 102.854C97.863 102.881 97.832 102.903 97.798 102.918C97.764 102.932 97.727 102.94 97.69 102.94H95.76C95.722 102.94 95.685 102.932 95.65 102.918C95.616 102.903 95.585 102.882 95.558 102.854C95.532 102.827 95.512 102.795 95.498 102.76C95.485 102.725 95.479 102.688 95.48 102.65V93.19C95.48 92.54 95.66 92.38 96.22 92.29C97.268 92.148 98.323 92.065 99.38 92.04C102.2 92.04 103.86 92.83 103.86 96.19V102.65C103.86 102.722 103.832 102.79 103.781 102.841C103.73 102.892 103.662 102.92 103.59 102.92Z" fill="#081416"></path><path d="M113.66 102.92H111.75C111.714 102.919 111.678 102.91 111.645 102.895C111.612 102.879 111.582 102.857 111.558 102.83C111.534 102.803 111.515 102.772 111.504 102.737C111.492 102.703 111.487 102.666 111.49 102.63V99.11H108.34V102.63C108.343 102.667 108.338 102.704 108.325 102.739C108.313 102.775 108.294 102.807 108.268 102.834C108.243 102.861 108.212 102.883 108.178 102.898C108.144 102.912 108.107 102.92 108.07 102.92H106.16C106.083 102.92 106.009 102.889 105.955 102.835C105.901 102.781 105.87 102.707 105.87 102.63V95.24C105.87 92.63 107.45 92.05 109.39 92.05H110.45C112.39 92.05 113.95 92.63 113.95 95.24V102.63C113.95 102.668 113.942 102.706 113.928 102.741C113.913 102.776 113.892 102.808 113.865 102.835C113.838 102.862 113.806 102.883 113.771 102.898C113.736 102.912 113.698 102.92 113.66 102.92ZM111.49 95.24C111.49 94.44 111.26 94.24 110.49 94.24H109.43C108.63 94.24 108.43 94.48 108.43 95.24V97.07H111.58L111.49 95.24Z" fill="#081416"></path><path d="M123.13 94.3C122.43 94.3 121.35 94.18 120.13 94.18C118.91 94.18 118.23 94.75 118.23 96.65V98.46C118.23 100.46 119.14 100.92 119.85 100.92C120.26 100.92 120.62 100.92 120.97 100.92V97.59C120.967 97.553 120.972 97.516 120.985 97.481C120.997 97.445 121.016 97.413 121.042 97.386C121.067 97.359 121.098 97.337 121.132 97.322C121.166 97.307 121.203 97.3 121.24 97.3H123.1C123.138 97.3 123.176 97.308 123.211 97.322C123.246 97.337 123.278 97.358 123.305 97.385C123.332 97.412 123.353 97.444 123.368 97.479C123.382 97.514 123.39 97.552 123.39 97.59V102.46C123.39 102.66 123.31 102.75 123.1 102.79C122.03 103.002 120.941 103.102 119.85 103.09C118.2 103.09 115.72 102.15 115.72 98.48V96.69C115.72 92.99 118.02 92.06 120.13 92.06C121.14 92.059 122.146 92.173 123.13 92.4C123.28 92.4 123.38 92.48 123.38 92.61V94.15C123.35 94.27 123.26 94.3 123.13 94.3Z" fill="#081416"></path><path d="M131.6 102.87C130.67 103.004 129.73 103.065 128.79 103.05C126.92 103.05 125.27 102.58 125.27 99.94V95.12C125.27 92.49 126.93 92.02 128.8 92.02C129.737 92.007 130.673 92.07 131.6 92.21C131.8 92.21 131.89 92.31 131.89 92.5V93.85C131.89 93.927 131.859 94.001 131.805 94.055C131.751 94.109 131.677 94.14 131.6 94.14H128.66C127.98 94.14 127.73 94.37 127.73 95.14V96.46H131.49C131.567 96.46 131.641 96.491 131.695 96.545C131.749 96.599 131.78 96.673 131.78 96.75V98.13C131.78 98.207 131.749 98.281 131.695 98.335C131.641 98.389 131.567 98.42 131.49 98.42H127.73V99.96C127.73 100.71 127.98 100.96 128.66 100.96H131.6C131.677 100.96 131.751 100.991 131.805 101.045C131.859 101.099 131.89 101.173 131.89 101.25V102.6C131.89 102.75 131.8 102.84 131.6 102.87Z" fill="#081416"></path><path d="M141.82 102.92H139.61C139.45 102.92 139.39 102.78 139.32 102.63L137.37 99H137.21H136.21V102.68C136.21 102.757 136.179 102.831 136.125 102.885C136.071 102.939 135.997 102.97 135.92 102.97H134C133.923 102.97 133.849 102.939 133.795 102.885C133.741 102.831 133.71 102.757 133.71 102.68V92.96C133.71 92.46 133.91 92.33 134.36 92.26C135.335 92.134 136.317 92.071 137.3 92.07C139.77 92.07 141.67 92.9 141.67 95.46V95.65C141.707 96.269 141.545 96.884 141.209 97.406C140.873 97.927 140.379 98.328 139.8 98.55L141.99 102.64C142.002 102.693 142.002 102.747 141.99 102.8C142 102.85 142 102.92 141.82 102.92ZM139.21 95.41C139.21 94.53 138.53 94.12 137.31 94.12C137.11 94.12 136.36 94.12 136.18 94.12V97C136.34 97 137.05 97 137.18 97C138.71 97 139.18 96.61 139.18 95.62L139.21 95.41Z" fill="#081416"></path><path d="M146.52 103.05C145.597 103.062 144.676 102.954 143.78 102.73C143.64 102.73 143.49 102.6 143.49 102.44V101C143.485 100.964 143.489 100.928 143.5 100.894C143.511 100.86 143.53 100.828 143.555 100.803C143.58 100.777 143.611 100.757 143.644 100.744C143.678 100.732 143.714 100.727 143.75 100.73H143.8C144.39 100.79 145.99 100.9 146.55 100.9C147.55 100.9 147.84 100.58 147.84 99.9C147.84 99.48 147.64 99.25 146.84 98.8L144.84 97.61C144.319 97.362 143.88 96.968 143.577 96.477C143.273 95.986 143.118 95.417 143.13 94.84C143.13 93.24 144.03 92.01 146.84 92.01C147.874 92.02 148.906 92.127 149.92 92.33C149.982 92.34 150.038 92.371 150.079 92.419C150.119 92.467 150.141 92.527 150.14 92.59V94.06C150.143 94.093 150.139 94.127 150.128 94.158C150.116 94.189 150.098 94.218 150.074 94.241C150.049 94.264 150.02 94.281 149.989 94.292C149.957 94.302 149.923 94.305 149.89 94.3C149.48 94.3 147.8 94.14 146.82 94.14C145.99 94.14 145.69 94.39 145.69 94.91C145.69 95.43 145.87 95.51 146.69 95.91L148.54 96.91C149.136 97.134 149.647 97.537 150.005 98.064C150.363 98.59 150.55 99.214 150.54 99.85C150.48 101.42 149.47 103.05 146.52 103.05Z" fill="#081416"></path><defs><linearGradient id="paint0_linear" x1="19.07" y1="80.22" x2="32.48" y2="17.77" gradientUnits="userSpaceOnUse"><stop stop-color="#EDEDED" stop-opacity="0"></stop><stop offset="1" stop-color="#B5B5B6"></stop></linearGradient></defs></svg>